<svg width="2048" height="223" viewBox="0 0 2048 223" fill="none" xmlns="http://www.w3.org/2000/svg">
<path fill-rule="evenodd" clip-rule="evenodd" d="M0 45C0 20.1472 20.1472 1.52588e-05 45 1.52588e-05H2003C2027.85 1.52588e-05 2048 20.1472 2048 45V176.675C2048 201.528 2027.85 221.675 2003 221.675H45C20.1472 221.675 0 201.528 0 176.675V45Z" fill="#00491A"/>
<path d="M161.464 39.7996H165.68V163.041H169.895V117.241H208.26V191.769H217.954V182.609H259.271V125.15H298.478V181.36H315.763V173.451H335.576V180.943H346.117V216.751H354.125V164.293H391.224V98.5056H412.724V85.5994H420.734V76.4373H432.117V97.2566H436.755V181.36H448.562V172.202H459.52V69.3611H493.247V73.5242H495.775V200.095H527.395V146.387L536.247 137.641H562.387L571.869 147.01V198.845H577.563V107.25H596.532V96.8396H614.241V105.584H618.877V198.015H625.623V132.645H661.879V181.36H671.576V109.33H686.752V115.992H704.457V180.943H710.361V89.3474H731.861V76.8552H752.095V88.5125H756.314V195.098H762.212V146.804H799.734V161.792H804.792V115.575H840.628V210.505H846.11V134.729H887.422V185.107H894.165V126.818H905.973V125.15H908.502V115.575H929.58V125.15H932.11V126.818H943.916V185.107H950.66V134.729H991.974V210.505H997.455V115.575H1033.29V161.792H1038.35V146.804H1075.87V195.098H1081.77V88.5125H1085.99V76.8552H1106.22V89.3474H1127.72V180.943H1133.62V115.992H1151.33V109.33H1166.5V181.36H1176.2V132.647H1212.46V198.015H1219.2V105.584H1223.84V96.8396H1241.55V107.25H1260.52V198.845H1266.21V147.012L1275.7 137.643H1301.84L1310.69 146.387V200.095H1342.31V73.5242H1344.83V69.3611H1378.56V172.202H1389.52V181.36H1401.33V97.2566H1405.96V76.4373H1417.35V85.5994H1425.36V98.5056H1446.86V164.293H1483.95V216.751H1491.96V180.943H1502.51V173.451H1522.32V181.36H1539.6V125.15H1578.81V182.609H1620.13V191.769H1629.82V117.241H1668.19V163.041H1672.4V39.7996H1676.62V15.6511H1693.9V40.2136H1710.76V186.773H1722.57V124.736H1756.72V204.26H1764.73V132.23H1795.5V147.219H1807.31V64.7781H1838.08V64.78H1868.86V147.219H1880.66V132.23H1911.44V204.261H1919.44V124.736H1953.59V186.773H1965.4V40.2136H1982.26V15.6511H1999.55V39.7996H2003.76V163.041H2007.98V117.241H2046.34V189.817C2041.52 207.065 2026.68 220.128 2008.49 222.341C1907.64 222.325 1838.26 222.277 1838.08 222.164C1837.93 222.546 1047.61 222.225 919.66 222.17H918.421C807.592 222.216 199.801 222.463 39.0264 222.28C16.9976 219.358 0.000121674 200.503 0 177.676V64.7781H30.7744V147.219H42.5801V132.23H73.3545V204.26H81.3633V124.736H115.511V186.773H127.316V40.2136H144.179V15.6511H161.464V39.7996Z" fill="black"/>
<path d="M181.976 179.637V175.015C185.687 172.769 188.497 170.758 190.437 168.915C191.207 159.871 191.61 139.905 191.61 108.949C191.61 86.5373 191.276 70.6906 190.64 61.3777C190.306 56.3527 189.636 53.4045 188.597 52.5331C187.159 51.2245 182.21 50.3875 173.746 49.9877V41.9457L192.514 42.28L206.897 42.5484C211.279 42.5484 217.703 42.4485 226.267 42.2486C234.532 42.0456 240.485 41.9457 244.065 41.9457C258.517 41.9457 268.887 44.3568 275.143 49.182C281.399 54.0415 284.542 60.6406 284.542 69.0167C284.542 77.6239 281.467 84.6948 275.277 90.1227C269.089 95.5818 260.357 99.467 249.083 101.812V102.618C260.691 103.789 268.821 105.566 273.537 107.943C278.221 110.288 282.001 113.974 284.845 118.964C287.723 123.958 289.161 129.62 289.161 136.02C289.161 143.824 286.785 151.195 282.069 158.163C277.351 165.13 271.095 170.458 263.301 174.109C255.505 177.794 244.533 179.637 230.381 179.637C227.571 179.637 223.392 179.537 217.769 179.337C212.551 179.134 208.269 179.034 204.958 179.034C201.243 179.034 193.584 179.234 181.976 179.637ZM219.509 98.4301H224.627C235.667 98.4301 243.429 96.4189 247.911 92.4337C252.395 88.4112 254.638 82.1493 254.638 73.6389C254.638 66.1684 252.829 60.6406 249.183 57.1209C245.537 53.57 239.55 51.796 231.22 51.796C228.142 51.796 224.362 52.0645 219.911 52.5987C219.578 72.7332 219.409 85.0631 219.409 89.5854L219.509 98.4301ZM219.712 168.581C223.492 169.521 227.072 169.99 230.415 169.99C239.684 169.99 246.841 167.31 251.793 161.982C256.777 156.623 259.253 148.784 259.253 138.396C259.253 131.663 258.115 126.135 255.873 121.813C253.599 117.525 250.487 114.342 246.542 112.231C242.593 110.123 236.939 109.083 229.614 109.083L219.712 109.183V111.728L219.509 137.256L219.712 163.053V168.581ZM319.565 170.792C325.687 170.458 329.466 169.855 330.904 168.915C331.874 168.281 333.415 165.802 335.52 161.479C339.502 152.969 344.586 141.145 350.776 126.035L385.399 40.9401H399.851L444.077 146.37C449.834 159.671 453.38 166.942 454.718 168.213C456.055 169.487 460.169 170.358 467.096 170.792V179.637C456.423 179.234 446.353 179.034 436.885 179.034C425.577 179.034 414.805 179.234 404.604 179.637V170.792C412.397 170.458 416.879 170.055 418.086 169.487C419.29 168.95 419.892 167.978 419.892 166.573C419.892 165.333 418.519 161.179 415.775 154.074L409.319 137.625C401.223 137.494 392.226 137.425 382.256 137.425C373.592 137.425 365.696 137.494 358.604 137.625L354.288 148.681C353.118 151.698 351.681 156.185 350.006 162.151C349.604 163.491 349.404 164.696 349.404 165.802C349.404 167.276 350.04 168.313 351.313 168.915C352.582 169.521 357.166 170.155 365.06 170.792V179.637C358.669 179.234 350.708 179.034 341.174 179.034C332.108 179.034 324.916 179.234 319.565 179.637V170.792ZM383.728 75.6471L363.054 126.169C369.076 126.438 375.666 126.572 382.926 126.572C390.486 126.572 397.712 126.438 404.635 126.169L383.728 75.6471ZM488.836 179.637V171.598C497.599 171.195 502.583 170.492 503.789 169.487C505.028 168.447 505.829 164.762 506.163 158.397C506.531 152.032 506.699 135.314 506.699 108.28C506.699 73.1019 506.231 54.6756 505.262 53.036C504.292 51.3931 498.803 50.3875 488.836 49.9877V41.9457C502.717 42.3486 512.016 42.5484 516.701 42.5484C530.585 42.5484 542.629 42.28 552.865 41.7772V49.9877C544.101 50.5219 539.083 51.2245 537.845 52.1645C536.607 53.067 535.737 56.721 535.3 63.1203C534.833 69.5164 534.599 86.2001 534.599 113.171C534.599 139.033 535.066 157.157 535.971 167.575C541.123 168.113 546.509 168.381 552.197 168.381H567.719C573.273 168.381 579.192 167.978 585.517 167.207C586.353 162.416 586.786 142.619 586.786 107.843C586.786 72.8676 586.284 54.6099 585.283 53.0016C584.279 51.3931 578.824 50.3875 568.923 49.9877V41.9457C581.201 42.28 591.938 42.4485 601.172 42.4485C609.736 42.4485 620.14 42.28 632.353 41.9457V49.9877C622.382 50.3875 616.928 51.3931 615.958 53.036C614.988 54.6756 614.486 72.3992 614.486 106.169C614.486 142.316 614.888 162.685 615.659 167.207C621.712 167.978 627.668 168.381 633.556 168.381H649.078C655.066 168.381 660.486 168.113 665.304 167.575C666.206 157.157 666.674 138.934 666.674 112.868C666.674 83.889 666.439 66.7026 665.937 61.3432C665.469 56.0152 664.568 52.9017 663.296 52.0645C662.023 51.1932 657.074 50.5219 648.407 49.9877V41.9457C659.816 42.3486 671.691 42.5484 684.104 42.5484C689.758 42.5484 699.226 42.3486 712.439 41.9457V49.9877C702.469 50.3875 697.018 51.4275 696.048 53.1015C695.078 54.7787 694.576 72.5334 694.576 106.403C694.576 133.706 694.741 150.758 695.078 157.525C695.377 164.293 696.113 168.213 697.286 169.284C698.456 170.358 703.508 171.126 712.439 171.598V179.637L706.854 179.737C703.339 179.737 698.724 179.571 692.97 179.303C689.255 179.134 684.437 179.034 678.518 179.034H522.757C518.141 179.034 513.323 179.134 508.305 179.303C500.612 179.571 495.962 179.737 494.421 179.737C493.049 179.737 491.178 179.706 488.836 179.637ZM738.43 170.792C744.552 170.458 748.332 169.855 749.77 168.915C750.74 168.281 752.28 165.802 754.385 161.479C758.368 152.969 763.451 141.145 769.642 126.035L804.265 40.9401H818.717L862.942 146.37C868.7 159.671 872.245 166.942 873.583 168.213C874.921 169.487 879.035 170.358 885.961 170.792V179.637C875.289 179.234 865.219 179.034 855.751 179.034C844.443 179.034 833.671 179.234 823.47 179.637V170.792C831.263 170.458 835.745 170.055 836.952 169.487C838.155 168.95 838.757 167.978 838.757 166.573C838.757 165.333 837.385 161.179 834.641 154.074L828.185 137.625C820.089 137.494 811.092 137.425 801.121 137.425C792.458 137.425 784.561 137.494 777.47 137.625L773.153 148.681C771.984 151.698 770.546 156.185 768.872 162.151C768.469 163.491 768.27 164.696 768.27 165.802C768.27 167.276 768.906 168.313 770.178 168.915C771.447 169.521 776.032 170.155 783.925 170.792V179.637C777.535 179.234 769.573 179.034 760.039 179.034C750.974 179.034 743.782 179.234 738.43 179.637V170.792ZM802.593 75.6471L781.92 126.169C787.942 126.438 794.532 126.572 801.792 126.572C809.352 126.572 816.578 126.438 823.501 126.169L802.593 75.6471ZM957.883 179.637V171.598C965.877 170.995 970.361 170.492 971.331 170.021C972.067 169.687 972.569 169.253 972.903 168.75C973.539 167.81 974.075 165.867 974.475 162.819C975.179 157.66 975.579 148.078 975.647 134.074L975.747 96.9559C975.747 85.1288 975.579 75.2474 975.211 67.3053C974.843 59.3664 974.341 54.7442 973.673 53.4356C973.305 52.5674 972.635 51.9303 971.733 51.4619C970.361 50.7903 965.746 50.3218 957.883 49.9877V41.9457C969.691 42.3486 980.197 42.5484 989.463 42.5484C1000.54 42.5484 1011.01 42.3486 1020.91 41.9457V49.9877C1012.61 50.5905 1007.83 51.2932 1006.56 52.1645C1005.29 53.0016 1004.52 55.0784 1004.25 58.3608C1003.91 62.5144 1003.72 79.0324 1003.65 107.977H1005.02C1011.61 102.684 1021.11 93.7736 1033.52 81.278C1045.93 68.7482 1055.53 58.3296 1062.32 49.9877L1062.43 46.4368L1062.32 42.9169L1063.19 41.9457C1070.32 42.3486 1076.38 42.5484 1081.39 42.5484C1086.68 42.5484 1092.6 42.3486 1099.19 41.9457V49.9877L1093.6 50.5905C1089.15 51.059 1086.28 51.5276 1084.97 52.0645C1082.36 53.27 1078.85 55.7154 1074.47 59.4008C1067.95 64.8943 1059.68 72.3648 1049.71 81.8809L1032.35 98.3614L1041.35 109.451C1052.02 122.55 1064.7 137.391 1079.49 154.009C1087.95 163.69 1093.04 169.018 1094.71 170.021C1095.88 170.658 1098.99 171.195 1104.01 171.598V179.637L1098.82 179.468L1081.39 179.034C1076.71 179.034 1070.65 179.234 1063.19 179.637C1057.91 172.838 1048.98 161.948 1036.36 146.941C1026.96 135.717 1017.96 125.498 1009.43 116.319C1008.33 115.148 1007.56 114.477 1007.13 114.277C1006.72 114.142 1006.36 114.074 1005.95 114.074C1004.98 114.074 1004.32 114.476 1003.95 115.248C1003.75 115.782 1003.65 118.396 1003.65 123.121L1004.05 152.969C1004.18 161.714 1004.52 166.739 1005.12 168.047C1005.52 168.984 1006.16 169.621 1007.09 170.021C1008.4 170.627 1013.01 171.126 1020.91 171.598V179.637C1011.21 179.234 1000.47 179.034 988.661 179.034C982.705 179.034 972.435 179.234 957.883 179.637ZM1127.15 179.637V171.598C1134.91 170.995 1139.33 170.389 1140.4 169.721C1141.17 169.318 1141.77 168.65 1142.14 167.644C1142.81 166.001 1143.28 159.234 1143.58 147.275C1143.88 135.314 1144.01 123.755 1144.01 112.5C1144.01 91.5625 1143.81 76.6215 1143.38 67.6082C1142.94 58.6293 1142.27 53.6043 1141.3 52.5331C1140.37 51.493 1137.56 50.8246 1132.84 50.4906L1127.15 49.9877V41.9457L1138.23 42.28C1145.08 42.4485 1150.54 42.5484 1154.59 42.5484C1160.14 42.5484 1169.1 42.4142 1181.45 42.1801C1188.11 42.0145 1192.99 41.9457 1196.14 41.9457C1207.84 41.9457 1216.48 43.0514 1222.06 45.2625C1227.65 47.4736 1231.9 50.8559 1234.81 55.3469C1237.72 59.8348 1239.16 65.4626 1239.16 72.1648C1239.16 84.2919 1234.88 94.4419 1226.28 102.649C1217.68 110.826 1206.77 114.914 1193.53 114.914C1191.82 114.914 1190.05 114.779 1188.14 114.511C1186.23 114.277 1184.23 113.908 1182.05 113.471C1180.95 111.126 1179.78 108.883 1178.54 106.672L1180.78 104.258C1182.22 104.561 1183.56 104.795 1184.76 104.995C1185.97 105.164 1187.07 105.263 1188.04 105.263C1194.63 105.263 1200.02 102.987 1204.2 98.3957C1208.38 93.8079 1210.45 87.3743 1210.45 79.1325C1210.45 69.9537 1208.28 63.0859 1203.96 58.5638C1199.65 54.0415 1193.29 51.796 1184.9 51.796C1181.52 51.796 1177.5 52.2644 1172.92 53.2015C1172.25 73.4358 1171.91 90.5913 1171.91 104.661C1171.91 109.386 1172.18 124.461 1172.68 149.921C1172.89 159.971 1173.22 165.733 1173.69 167.276C1173.99 168.381 1174.62 169.153 1175.53 169.621C1176.97 170.358 1182.52 170.995 1192.19 171.598V179.637C1180.65 179.234 1170.91 179.034 1163.02 179.034C1159.47 179.034 1147.53 179.234 1127.15 179.637ZM1269.73 179.637V175.015C1273.61 172.669 1276.45 170.627 1278.19 168.915C1278.96 162.048 1279.36 140.776 1279.36 105.129C1279.36 71.9649 1278.52 54.5412 1276.89 52.9017C1275.21 51.2245 1270.09 50.2533 1261.5 49.9877V41.9457C1274.18 42.3486 1284.58 42.5484 1292.68 42.5484C1304.65 42.5484 1315.66 42.3486 1325.73 41.9457V49.9877C1316.76 50.5905 1311.68 51.3277 1310.51 52.2644C1309.34 53.1702 1308.53 55.9841 1308.1 60.6751C1307.66 65.3627 1307.46 78.0269 1307.46 98.6299C1309.67 98.6299 1312.48 98.5644 1315.89 98.4301C1319.2 98.2959 1321.75 98.227 1323.52 98.227C1342.39 98.227 1356.04 101.781 1364.47 108.883C1372.9 116.019 1377.11 124.93 1377.11 135.682C1377.11 144.327 1374.74 151.932 1369.95 158.497C1365.2 165.065 1359.12 170.224 1351.72 173.975C1344.36 177.76 1333.29 179.637 1318.54 179.637C1315.66 179.637 1311.34 179.537 1305.59 179.337C1300.44 179.134 1296.69 179.034 1294.42 179.034C1288.66 179.034 1280.43 179.234 1269.73 179.637ZM1307.56 168.516C1310.98 169.487 1314.49 169.99 1318.1 169.99C1337.5 169.99 1347.21 159.337 1347.21 137.994C1347.21 131.597 1346.03 126.101 1343.66 121.544C1341.28 116.956 1338.01 113.774 1333.86 111.897C1329.68 110.02 1324.12 109.083 1317.23 109.083L1307.46 109.183C1307.33 113.505 1307.26 125.029 1307.26 143.724C1307.26 155.917 1307.36 164.193 1307.56 168.516ZM1385.95 179.637V171.598C1394.78 171.126 1399.76 170.389 1400.9 169.318C1402.04 168.281 1402.74 165.702 1403.01 161.548C1403.54 152.903 1403.81 136.757 1403.81 113.102C1403.81 104.058 1403.68 90.9252 1403.41 73.7045C1403.31 61.9805 1403.04 55.5156 1402.64 54.3758C1402.27 53.2357 1401.6 52.3989 1400.63 51.8615C1399.19 51.1246 1394.31 50.5219 1385.95 49.9877V41.9457C1399.29 42.3486 1409.5 42.5484 1416.56 42.5484C1428.73 42.5484 1439.74 42.3486 1449.58 41.9457V49.9877C1440.78 50.5219 1435.83 51.2245 1434.69 52.0959C1433.55 53.0016 1432.85 55.0441 1432.51 58.2608C1431.98 64.5601 1431.71 77.3242 1431.71 96.5531C1431.71 122.15 1431.81 140.005 1432.01 150.089C1432.18 160.174 1432.78 166.136 1433.75 168.047C1434.12 168.915 1434.96 169.587 1436.19 170.055C1437.46 170.558 1441.91 171.061 1449.58 171.598V179.637L1438.1 179.368C1430.87 179.134 1424.38 179.034 1418.69 179.034L1385.95 179.637ZM1476.13 179.637V171.598C1484.89 171.195 1489.88 170.492 1491.09 169.487C1492.32 168.447 1493.12 164.762 1493.46 158.397C1493.83 152.032 1493.99 135.314 1493.99 108.28C1493.99 73.1019 1493.53 54.6756 1492.56 53.036C1491.59 51.3931 1486.1 50.3875 1476.13 49.9877V41.9457C1490.01 42.3486 1499.31 42.5484 1504 42.5484C1517.88 42.5484 1529.92 42.28 1540.16 41.7772V49.9877C1531.4 50.5219 1526.38 51.2245 1525.14 52.1645C1523.9 53.067 1523.03 56.721 1522.6 63.1203C1522.13 69.5164 1521.89 86.2001 1521.89 113.171C1521.89 139.033 1522.36 157.157 1523.27 167.575C1528.42 168.113 1533.8 168.381 1539.49 168.381H1555.01C1560.57 168.381 1566.49 167.978 1572.81 167.207C1573.65 162.416 1574.08 142.619 1574.08 107.843C1574.08 72.8676 1573.58 54.6099 1572.58 53.0016C1571.57 51.3931 1566.12 50.3875 1556.22 49.9877V41.9457C1568.5 42.28 1579.23 42.4485 1588.47 42.4485C1597.03 42.4485 1607.44 42.28 1619.65 41.9457V49.9877C1609.68 50.3875 1604.22 51.3931 1603.25 53.036C1602.28 54.6756 1601.78 72.3992 1601.78 106.169C1601.78 142.316 1602.18 162.685 1602.95 167.207C1609.01 167.978 1614.96 168.381 1620.85 168.381H1636.37C1642.36 168.381 1647.78 168.113 1652.6 167.575C1653.5 157.157 1653.97 138.934 1653.97 112.868C1653.97 83.889 1653.74 66.7026 1653.23 61.3432C1652.77 56.0152 1651.86 52.9017 1650.59 52.0645C1649.32 51.1932 1644.37 50.5219 1635.7 49.9877V41.9457C1647.11 42.3486 1658.99 42.5484 1671.4 42.5484C1677.05 42.5484 1686.52 42.3486 1699.74 41.9457V49.9877C1689.76 50.3875 1684.31 51.4275 1683.34 53.1015C1682.37 54.7787 1681.87 72.5334 1681.87 106.403C1681.87 133.706 1682.04 150.758 1682.37 157.525C1682.67 164.293 1683.41 168.213 1684.58 169.284C1685.75 170.358 1690.8 171.126 1699.74 171.598V179.637L1694.15 179.737C1690.63 179.737 1686.02 179.571 1680.27 179.303C1676.55 179.134 1671.73 179.034 1665.81 179.034H1510.05C1505.44 179.034 1500.62 179.134 1495.6 179.303C1487.91 179.571 1483.26 179.737 1481.72 179.737C1480.34 179.737 1478.47 179.706 1476.13 179.637ZM1725.73 170.792C1731.85 170.458 1735.63 169.855 1737.07 168.915C1738.04 168.281 1739.58 165.802 1741.68 161.479C1745.66 152.969 1750.75 141.145 1756.94 126.035L1791.56 40.9401H1806.01L1850.24 146.37C1856 159.671 1859.54 166.942 1860.88 168.213C1862.22 169.487 1866.33 170.358 1873.26 170.792V179.637C1862.58 179.234 1852.51 179.034 1843.05 179.034C1831.74 179.034 1820.97 179.234 1810.77 179.637V170.792C1818.56 170.458 1823.04 170.055 1824.25 169.487C1825.45 168.95 1826.05 167.978 1826.05 166.573C1826.05 165.333 1824.68 161.179 1821.94 154.074L1815.48 137.625C1807.38 137.494 1798.39 137.425 1788.42 137.425C1779.75 137.425 1771.86 137.494 1764.77 137.625L1760.45 148.681C1759.28 151.698 1757.84 156.185 1756.17 162.151C1755.76 163.491 1755.57 164.696 1755.57 165.802C1755.57 167.276 1756.2 168.313 1757.47 168.915C1758.74 169.521 1763.33 170.155 1771.22 170.792V179.637C1764.83 179.234 1756.87 179.034 1747.34 179.034C1738.27 179.034 1731.08 179.234 1725.73 179.637V170.792ZM1789.89 75.6471L1769.22 126.169C1775.24 126.438 1781.83 126.572 1789.09 126.572C1796.65 126.572 1803.87 126.438 1810.8 126.169L1789.89 75.6471Z" fill="white"/>
</svg>
